# xmcd
#
# Track frame offsets:
#	182
#	29080
#	59792
#	86615
#	114110
#	135870
#	189405
#	213487
#	224815
#	242857
#
# Disc length: 4199 seconds
#
# Revision: 2
# Processed by: cddbd v1.5.2PL0 Copyright (c) Steve Scherf et al.
# Submitted via: dBpowerAMP V4.0
#
DISCID=9710650a
DTITLE=Various Artist - Savoy Wars
DYEAR=1994
DGENRE=Other
TTITLE0=The Savoy Hitler-Youth Band  - Blue Monday
TTITLE1=P. J. Proby - Sign O the Times
TTITLE2=Lord Horror - Garbageman
TTITLE3=The Savoy Holman Hunt African Orchestra, featuring P. J. Proby - In the Air Tonight
TTITLE4=Meng and Ecker - Shoot Yer Load
TTITLE5=The Savoy King Cocaine Band - Raw Power
TTITLE6=The Savoy Holman Hunt African Orchestra, featuring P. J. Proby - I'm on Fire
TTITLE7=David Britten and Michael Butterworth - The Old Fenian Gun
TTITLE8=Jessie Matthews - Reverbstorm
TTITLE9=P. J. Proby - Hardcore: M97002
EXTD=
EXTT0=
EXTT1=
EXTT2=
EXTT3=
EXTT4=
EXTT5=
EXTT6=
EXTT7=
EXTT8=
EXTT9=
PLAYORDER=
